<svg width="3165" height="1184" xmlns="http://www.w3.org/2000/svg" xmlns:xlink="http://www.w3.org/1999/xlink" xml:space="preserve" overflow="hidden"><defs><linearGradient x1="1157.27" y1="506.709" x2="2852.65" y2="1929.3" gradientUnits="userSpaceOnUse" spreadMethod="reflect" id="fill0"><stop offset="0" stop-color="#D359C4"/><stop offset="0.49" stop-color="#E6A2DE"/><stop offset="1" stop-color="#F8E4F6"/></linearGradient><linearGradient x1="872.227" y1="1432.79" x2="294.274" y2="1017.66" gradientUnits="userSpaceOnUse" spreadMethod="reflect" id="fill1"><stop offset="0" stop-color="#D359C4"/><stop offset="0.00724638" stop-color="#D35AC4"/><stop offset="0.0144928" stop-color="#D35CC5"/><stop offset="0.0217391" stop-color="#D45EC6"/><stop offset="0.0289855" stop-color="#D460C6"/><stop offset="0.0362319" stop-color="#D562C7"/><stop offset="0.0434783" stop-color="#D564C7"/><stop offset="0.0507246" stop-color="#D665C8"/><stop offset="0.057971" stop-color="#D667C9"/><stop offset="0.0652174" stop-color="#D769C9"/><stop offset="0.0724638" stop-color="#D76BCA"/><stop offset="0.0797101" stop-color="#D86DCB"/><stop offset="0.0869565" stop-color="#D86ECB"/><stop offset="0.0942029" stop-color="#D970CC"/><stop offset="0.101449" stop-color="#D972CD"/><stop offset="0.108696" stop-color="#DA73CD"/><stop offset="0.115942" stop-color="#DA75CE"/><stop offset="0.123188" stop-color="#DB77CE"/><stop offset="0.130435" stop-color="#DB79CF"/><stop offset="0.137681" stop-color="#DB7AD0"/><stop offset="0.144928" stop-color="#DC7CD0"/><stop offset="0.152174" stop-color="#DC7ED1"/><stop offset="0.15942" stop-color="#DD7FD1"/><stop offset="0.166667" stop-color="#DD81D2"/><stop offset="0.173913" stop-color="#DE82D3"/><stop offset="0.181159" stop-color="#DE84D3"/><stop offset="0.188406" stop-color="#DE86D4"/><stop offset="0.195652" stop-color="#DF87D4"/><stop offset="0.202899" stop-color="#DF89D5"/><stop offset="0.210145" stop-color="#E08AD5"/><stop offset="0.217391" stop-color="#E08CD6"/><stop offset="0.224638" stop-color="#E18DD6"/><stop offset="0.231884" stop-color="#E18FD7"/><stop offset="0.23913" stop-color="#E190D8"/><stop offset="0.246377" stop-color="#E292D8"/><stop offset="0.253623" stop-color="#E293D9"/><stop offset="0.26087" stop-color="#E395D9"/><stop offset="0.268116" stop-color="#E396DA"/><stop offset="0.275362" stop-color="#E398DA"/><stop offset="0.282609" stop-color="#E499DB"/><stop offset="0.289855" stop-color="#E49ADB"/><stop offset="0.297101" stop-color="#E49CDC"/><stop offset="0.304348" stop-color="#E59DDC"/><stop offset="0.311594" stop-color="#E59EDD"/><stop offset="0.318841" stop-color="#E5A0DD"/><stop offset="0.326087" stop-color="#E6A1DE"/><stop offset="0.333333" stop-color="#E6A3DE"/><stop offset="0.34058" stop-color="#E7A4DF"/><stop offset="0.347826" stop-color="#E7A5DF"/><stop offset="0.355072" stop-color="#E7A6E0"/><stop offset="0.362319" stop-color="#E8A8E0"/><stop offset="0.369565" stop-color="#E8A9E0"/><stop offset="0.376812" stop-color="#E8AAE1"/><stop offset="0.384058" stop-color="#E9ABE1"/><stop offset="0.391304" stop-color="#E9ADE2"/><stop offset="0.398551" stop-color="#E9AEE2"/><stop offset="0.405797" stop-color="#EAAFE3"/><stop offset="0.413043" stop-color="#EAB0E3"/><stop offset="0.42029" stop-color="#EAB1E4"/><stop offset="0.427536" stop-color="#EAB3E4"/><stop offset="0.434783" stop-color="#EBB4E4"/><stop offset="0.442029" stop-color="#EBB5E5"/><stop offset="0.449275" stop-color="#EBB6E5"/><stop offset="0.456522" stop-color="#ECB7E6"/><stop offset="0.463768" stop-color="#ECB8E6"/><stop offset="0.471014" stop-color="#ECB9E6"/><stop offset="0.478261" stop-color="#EDBAE7"/><stop offset="0.485507" stop-color="#EDBCE7"/><stop offset="0.492754" stop-color="#EDBDE7"/><stop offset="0.5" stop-color="#EDBEE8"/><stop offset="0.507246" stop-color="#EEBFE8"/><stop offset="0.514493" stop-color="#EEC0E9"/><stop offset="0.521739" stop-color="#EEC1E9"/><stop offset="0.528986" stop-color="#EEC2E9"/><stop offset="0.536232" stop-color="#EFC3EA"/><stop offset="0.543478" stop-color="#EFC4EA"/><stop offset="0.550725" stop-color="#EFC4EA"/><stop offset="0.557971" stop-color="#EFC5EB"/><stop offset="0.565217" stop-color="#F0C6EB"/><stop offset="0.572464" stop-color="#F0C7EB"/><stop offset="0.57971" stop-color="#F0C8EC"/><stop offset="0.586957" stop-color="#F0C9EC"/><stop offset="0.594203" stop-color="#F1CAEC"/><stop offset="0.601449" stop-color="#F1CBED"/><stop offset="0.608696" stop-color="#F1CCED"/><stop offset="0.615942" stop-color="#F1CCED"/><stop offset="0.623188" stop-color="#F2CDED"/><stop offset="0.630435" stop-color="#F2CEEE"/><stop offset="0.637681" stop-color="#F2CFEE"/><stop offset="0.644928" stop-color="#F2D0EE"/><stop offset="0.652174" stop-color="#F2D0EF"/><stop offset="0.65942" stop-color="#F3D1EF"/><stop offset="0.666667" stop-color="#F3D2EF"/><stop offset="0.673913" stop-color="#F3D2EF"/><stop offset="0.681159" stop-color="#F3D3F0"/><stop offset="0.688406" stop-color="#F3D4F0"/><stop offset="0.695652" stop-color="#F4D5F0"/><stop offset="0.702899" stop-color="#F4D5F0"/><stop offset="0.710145" stop-color="#F4D6F1"/><stop offset="0.717391" stop-color="#F4D6F1"/><stop offset="0.724638" stop-color="#F4D7F1"/><stop offset="0.731884" stop-color="#F4D8F1"/><stop offset="0.73913" stop-color="#F5D8F1"/><stop offset="0.746377" stop-color="#F5D9F2"/><stop offset="0.753623" stop-color="#F5D9F2"/><stop offset="0.76087" stop-color="#F5DAF2"/><stop offset="0.768116" stop-color="#F5DBF2"/><stop offset="0.775362" stop-color="#F5DBF2"/><stop offset="0.782609" stop-color="#F5DCF3"/><stop offset="0.789855" stop-color="#F6DCF3"/><stop offset="0.797101" stop-color="#F6DDF3"/><stop offset="0.804348" stop-color="#F6DDF3"/><stop offset="0.811594" stop-color="#F6DDF3"/><stop offset="0.818841" stop-color="#F6DEF3"/><stop offset="0.826087" stop-color="#F6DEF4"/><stop offset="0.833333" stop-color="#F6DFF4"/><stop offset="0.84058" stop-color="#F6DFF4"/><stop offset="0.847826" stop-color="#F6DFF4"/><stop offset="0.855072" stop-color="#F7E0F4"/><stop offset="0.862319" stop-color="#F7E0F4"/><stop offset="0.869565" stop-color="#F7E0F4"/><stop offset="0.876812" stop-color="#F7E1F5"/><stop offset="0.884058" stop-color="#F7E1F5"/><stop offset="0.891304" stop-color="#F7E1F5"/><stop offset="0.898551" stop-color="#F7E2F5"/><stop offset="0.905797" stop-color="#F7E2F5"/><stop offset="0.913043" stop-color="#F7E2F5"/><stop offset="0.92029" stop-color="#F7E2F5"/><stop offset="0.927536" stop-color="#F7E2F5"/><stop offset="0.934783" stop-color="#F7E3F5"/><stop offset="0.942029" stop-color="#F7E3F5"/><stop offset="0.949275" stop-color="#F7E3F5"/><stop offset="0.956522" stop-color="#F7E3F5"/><stop offset="0.963768" stop-color="#F7E3F5"/><stop offset="0.971014" stop-color="#F7E3F5"/><stop offset="0.978261" stop-color="#F7E3F5"/><stop offset="0.985507" stop-color="#F7E3F5"/><stop offset="0.992754" stop-color="#F7E3F5"/><stop offset="1" stop-color="#F8E4F6"/></linearGradient><linearGradient x1="795.065" y1="1340.76" x2="168.158" y2="1140.62" gradientUnits="userSpaceOnUse" spreadMethod="reflect" id="fill2"><stop offset="0" stop-color="#D359C4"/><stop offset="0.00724638" stop-color="#D35AC4"/><stop offset="0.0144928" stop-color="#D35CC5"/><stop offset="0.0217391" stop-color="#D45EC6"/><stop offset="0.0289855" stop-color="#D460C6"/><stop offset="0.0362319" stop-color="#D562C7"/><stop offset="0.0434783" stop-color="#D564C7"/><stop offset="0.0507246" stop-color="#D665C8"/><stop offset="0.057971" stop-color="#D667C9"/><stop offset="0.0652174" stop-color="#D769C9"/><stop offset="0.0724638" stop-color="#D76BCA"/><stop offset="0.0797101" stop-color="#D86DCB"/><stop offset="0.0869565" stop-color="#D86ECB"/><stop offset="0.0942029" stop-color="#D970CC"/><stop offset="0.101449" stop-color="#D972CD"/><stop offset="0.108696" stop-color="#DA73CD"/><stop offset="0.115942" stop-color="#DA75CE"/><stop offset="0.123188" stop-color="#DB77CE"/><stop offset="0.130435" stop-color="#DB79CF"/><stop offset="0.137681" stop-color="#DB7AD0"/><stop offset="0.144928" stop-color="#DC7CD0"/><stop offset="0.152174" stop-color="#DC7ED1"/><stop offset="0.15942" stop-color="#DD7FD1"/><stop offset="0.166667" stop-color="#DD81D2"/><stop offset="0.173913" stop-color="#DE82D3"/><stop offset="0.181159" stop-color="#DE84D3"/><stop offset="0.188406" stop-color="#DE86D4"/><stop offset="0.195652" stop-color="#DF87D4"/><stop offset="0.202899" stop-color="#DF89D5"/><stop offset="0.210145" stop-color="#E08AD5"/><stop offset="0.217391" stop-color="#E08CD6"/><stop offset="0.224638" stop-color="#E18DD6"/><stop offset="0.231884" stop-color="#E18FD7"/><stop offset="0.23913" stop-color="#E190D8"/><stop offset="0.246377" stop-color="#E292D8"/><stop offset="0.253623" stop-color="#E293D9"/><stop offset="0.26087" stop-color="#E395D9"/><stop offset="0.268116" stop-color="#E396DA"/><stop offset="0.275362" stop-color="#E398DA"/><stop offset="0.282609" stop-color="#E499DB"/><stop offset="0.289855" stop-color="#E49ADB"/><stop offset="0.297101" stop-color="#E49CDC"/><stop offset="0.304348" stop-color="#E59DDC"/><stop offset="0.311594" stop-color="#E59EDD"/><stop offset="0.318841" stop-color="#E5A0DD"/><stop offset="0.326087" stop-color="#E6A1DE"/><stop offset="0.333333" stop-color="#E6A3DE"/><stop offset="0.34058" stop-color="#E7A4DF"/><stop offset="0.347826" stop-color="#E7A5DF"/><stop offset="0.355072" stop-color="#E7A6E0"/><stop offset="0.362319" stop-color="#E8A8E0"/><stop offset="0.369565" stop-color="#E8A9E0"/><stop offset="0.376812" stop-color="#E8AAE1"/><stop offset="0.384058" stop-color="#E9ABE1"/><stop offset="0.391304" stop-color="#E9ADE2"/><stop offset="0.398551" stop-color="#E9AEE2"/><stop offset="0.405797" stop-color="#EAAFE3"/><stop offset="0.413043" stop-color="#EAB0E3"/><stop offset="0.42029" stop-color="#EAB1E4"/><stop offset="0.427536" stop-color="#EAB3E4"/><stop offset="0.434783" stop-color="#EBB4E4"/><stop offset="0.442029" stop-color="#EBB5E5"/><stop offset="0.449275" stop-color="#EBB6E5"/><stop offset="0.456522" stop-color="#ECB7E6"/><stop offset="0.463768" stop-color="#ECB8E6"/><stop offset="0.471014" stop-color="#ECB9E6"/><stop offset="0.478261" stop-color="#EDBAE7"/><stop offset="0.485507" stop-color="#EDBCE7"/><stop offset="0.492754" stop-color="#EDBDE7"/><stop offset="0.5" stop-color="#EDBEE8"/><stop offset="0.507246" stop-color="#EEBFE8"/><stop offset="0.514493" stop-color="#EEC0E9"/><stop offset="0.521739" stop-color="#EEC1E9"/><stop offset="0.528986" stop-color="#EEC2E9"/><stop offset="0.536232" stop-color="#EFC3EA"/><stop offset="0.543478" stop-color="#EFC4EA"/><stop offset="0.550725" stop-color="#EFC4EA"/><stop offset="0.557971" stop-color="#EFC5EB"/><stop offset="0.565217" stop-color="#F0C6EB"/><stop offset="0.572464" stop-color="#F0C7EB"/><stop offset="0.57971" stop-color="#F0C8EC"/><stop offset="0.586957" stop-color="#F0C9EC"/><stop offset="0.594203" stop-color="#F1CAEC"/><stop offset="0.601449" stop-color="#F1CBED"/><stop offset="0.608696" stop-color="#F1CCED"/><stop offset="0.615942" stop-color="#F1CCED"/><stop offset="0.623188" stop-color="#F2CDED"/><stop offset="0.630435" stop-color="#F2CEEE"/><stop offset="0.637681" stop-color="#F2CFEE"/><stop offset="0.644928" stop-color="#F2D0EE"/><stop offset="0.652174" stop-color="#F2D0EF"/><stop offset="0.65942" stop-color="#F3D1EF"/><stop offset="0.666667" stop-color="#F3D2EF"/><stop offset="0.673913" stop-color="#F3D2EF"/><stop offset="0.681159" stop-color="#F3D3F0"/><stop offset="0.688406" stop-color="#F3D4F0"/><stop offset="0.695652" stop-color="#F4D5F0"/><stop offset="0.702899" stop-color="#F4D5F0"/><stop offset="0.710145" stop-color="#F4D6F1"/><stop offset="0.717391" stop-color="#F4D6F1"/><stop offset="0.724638" stop-color="#F4D7F1"/><stop offset="0.731884" stop-color="#F4D8F1"/><stop offset="0.73913" stop-color="#F5D8F1"/><stop offset="0.746377" stop-color="#F5D9F2"/><stop offset="0.753623" stop-color="#F5D9F2"/><stop offset="0.76087" stop-color="#F5DAF2"/><stop offset="0.768116" stop-color="#F5DBF2"/><stop offset="0.775362" stop-color="#F5DBF2"/><stop offset="0.782609" stop-color="#F5DCF3"/><stop offset="0.789855" stop-color="#F6DCF3"/><stop offset="0.797101" stop-color="#F6DDF3"/><stop offset="0.804348" stop-color="#F6DDF3"/><stop offset="0.811594" stop-color="#F6DDF3"/><stop offset="0.818841" stop-color="#F6DEF3"/><stop offset="0.826087" stop-color="#F6DEF4"/><stop offset="0.833333" stop-color="#F6DFF4"/><stop offset="0.84058" stop-color="#F6DFF4"/><stop offset="0.847826" stop-color="#F6DFF4"/><stop offset="0.855072" stop-color="#F7E0F4"/><stop offset="0.862319" stop-color="#F7E0F4"/><stop offset="0.869565" stop-color="#F7E0F4"/><stop offset="0.876812" stop-color="#F7E1F5"/><stop offset="0.884058" stop-color="#F7E1F5"/><stop offset="0.891304" stop-color="#F7E1F5"/><stop offset="0.898551" stop-color="#F7E2F5"/><stop offset="0.905797" stop-color="#F7E2F5"/><stop offset="0.913043" stop-color="#F7E2F5"/><stop offset="0.92029" stop-color="#F7E2F5"/><stop offset="0.927536" stop-color="#F7E2F5"/><stop offset="0.934783" stop-color="#F7E3F5"/><stop offset="0.942029" stop-color="#F7E3F5"/><stop offset="0.949275" stop-color="#F7E3F5"/><stop offset="0.956522" stop-color="#F7E3F5"/><stop offset="0.963768" stop-color="#F7E3F5"/><stop offset="0.971014" stop-color="#F7E3F5"/><stop offset="0.978261" stop-color="#F7E3F5"/><stop offset="0.985507" stop-color="#F7E3F5"/><stop offset="0.992754" stop-color="#F7E3F5"/><stop offset="1" stop-color="#F8E4F6"/></linearGradient><linearGradient x1="1115.66" y1="1403.7" x2="13.2123" y2="1264.26" gradientUnits="userSpaceOnUse" spreadMethod="reflect" id="fill3"><stop offset="0" stop-color="#D359C4"/><stop offset="0.00724638" stop-color="#D35AC4"/><stop offset="0.0144928" stop-color="#D35CC5"/><stop offset="0.0217391" stop-color="#D45EC6"/><stop offset="0.0289855" stop-color="#D460C6"/><stop offset="0.0362319" stop-color="#D562C7"/><stop offset="0.0434783" stop-color="#D564C7"/><stop offset="0.0507246" stop-color="#D665C8"/><stop offset="0.057971" stop-color="#D667C9"/><stop offset="0.0652174" stop-color="#D769C9"/><stop offset="0.0724638" stop-color="#D76BCA"/><stop offset="0.0797101" stop-color="#D86DCB"/><stop offset="0.0869565" stop-color="#D86ECB"/><stop offset="0.0942029" stop-color="#D970CC"/><stop offset="0.101449" stop-color="#D972CD"/><stop offset="0.108696" stop-color="#DA73CD"/><stop offset="0.115942" stop-color="#DA75CE"/><stop offset="0.123188" stop-color="#DB77CE"/><stop offset="0.130435" stop-color="#DB79CF"/><stop offset="0.137681" stop-color="#DB7AD0"/><stop offset="0.144928" stop-color="#DC7CD0"/><stop offset="0.152174" stop-color="#DC7ED1"/><stop offset="0.15942" stop-color="#DD7FD1"/><stop offset="0.166667" stop-color="#DD81D2"/><stop offset="0.173913" stop-color="#DE82D3"/><stop offset="0.181159" stop-color="#DE84D3"/><stop offset="0.188406" stop-color="#DE86D4"/><stop offset="0.195652" stop-color="#DF87D4"/><stop offset="0.202899" stop-color="#DF89D5"/><stop offset="0.210145" stop-color="#E08AD5"/><stop offset="0.217391" stop-color="#E08CD6"/><stop offset="0.224638" stop-color="#E18DD6"/><stop offset="0.231884" stop-color="#E18FD7"/><stop offset="0.23913" stop-color="#E190D8"/><stop offset="0.246377" stop-color="#E292D8"/><stop offset="0.253623" stop-color="#E293D9"/><stop offset="0.26087" stop-color="#E395D9"/><stop offset="0.268116" stop-color="#E396DA"/><stop offset="0.275362" stop-color="#E398DA"/><stop offset="0.282609" stop-color="#E499DB"/><stop offset="0.289855" stop-color="#E49ADB"/><stop offset="0.297101" stop-color="#E49CDC"/><stop offset="0.304348" stop-color="#E59DDC"/><stop offset="0.311594" stop-color="#E59EDD"/><stop offset="0.318841" stop-color="#E5A0DD"/><stop offset="0.326087" stop-color="#E6A1DE"/><stop offset="0.333333" stop-color="#E6A3DE"/><stop offset="0.34058" stop-color="#E7A4DF"/><stop offset="0.347826" stop-color="#E7A5DF"/><stop offset="0.355072" stop-color="#E7A6E0"/><stop offset="0.362319" stop-color="#E8A8E0"/><stop offset="0.369565" stop-color="#E8A9E0"/><stop offset="0.376812" stop-color="#E8AAE1"/><stop offset="0.384058" stop-color="#E9ABE1"/><stop offset="0.391304" stop-color="#E9ADE2"/><stop offset="0.398551" stop-color="#E9AEE2"/><stop offset="0.405797" stop-color="#EAAFE3"/><stop offset="0.413043" stop-color="#EAB0E3"/><stop offset="0.42029" stop-color="#EAB1E4"/><stop offset="0.427536" stop-color="#EAB3E4"/><stop offset="0.434783" stop-color="#EBB4E4"/><stop offset="0.442029" stop-color="#EBB5E5"/><stop offset="0.449275" stop-color="#EBB6E5"/><stop offset="0.456522" stop-color="#ECB7E6"/><stop offset="0.463768" stop-color="#ECB8E6"/><stop offset="0.471014" stop-color="#ECB9E6"/><stop offset="0.478261" stop-color="#EDBAE7"/><stop offset="0.485507" stop-color="#EDBCE7"/><stop offset="0.492754" stop-color="#EDBDE7"/><stop offset="0.5" stop-color="#EDBEE8"/><stop offset="0.507246" stop-color="#EEBFE8"/><stop offset="0.514493" stop-color="#EEC0E9"/><stop offset="0.521739" stop-color="#EEC1E9"/><stop offset="0.528986" stop-color="#EEC2E9"/><stop offset="0.536232" stop-color="#EFC3EA"/><stop offset="0.543478" stop-color="#EFC4EA"/><stop offset="0.550725" stop-color="#EFC4EA"/><stop offset="0.557971" stop-color="#EFC5EB"/><stop offset="0.565217" stop-color="#F0C6EB"/><stop offset="0.572464" stop-color="#F0C7EB"/><stop offset="0.57971" stop-color="#F0C8EC"/><stop offset="0.586957" stop-color="#F0C9EC"/><stop offset="0.594203" stop-color="#F1CAEC"/><stop offset="0.601449" stop-color="#F1CBED"/><stop offset="0.608696" stop-color="#F1CCED"/><stop offset="0.615942" stop-color="#F1CCED"/><stop offset="0.623188" stop-color="#F2CDED"/><stop offset="0.630435" stop-color="#F2CEEE"/><stop offset="0.637681" stop-color="#F2CFEE"/><stop offset="0.644928" stop-color="#F2D0EE"/><stop offset="0.652174" stop-color="#F2D0EF"/><stop offset="0.65942" stop-color="#F3D1EF"/><stop offset="0.666667" stop-color="#F3D2EF"/><stop offset="0.673913" stop-color="#F3D2EF"/><stop offset="0.681159" stop-color="#F3D3F0"/><stop offset="0.688406" stop-color="#F3D4F0"/><stop offset="0.695652" stop-color="#F4D5F0"/><stop offset="0.702899" stop-color="#F4D5F0"/><stop offset="0.710145" stop-color="#F4D6F1"/><stop offset="0.717391" stop-color="#F4D6F1"/><stop offset="0.724638" stop-color="#F4D7F1"/><stop offset="0.731884" stop-color="#F4D8F1"/><stop offset="0.73913" stop-color="#F5D8F1"/><stop offset="0.746377" stop-color="#F5D9F2"/><stop offset="0.753623" stop-color="#F5D9F2"/><stop offset="0.76087" stop-color="#F5DAF2"/><stop offset="0.768116" stop-color="#F5DBF2"/><stop offset="0.775362" stop-color="#F5DBF2"/><stop offset="0.782609" stop-color="#F5DCF3"/><stop offset="0.789855" stop-color="#F6DCF3"/><stop offset="0.797101" stop-color="#F6DDF3"/><stop offset="0.804348" stop-color="#F6DDF3"/><stop offset="0.811594" stop-color="#F6DDF3"/><stop offset="0.818841" stop-color="#F6DEF3"/><stop offset="0.826087" stop-color="#F6DEF4"/><stop offset="0.833333" stop-color="#F6DFF4"/><stop offset="0.84058" stop-color="#F6DFF4"/><stop offset="0.847826" stop-color="#F6DFF4"/><stop offset="0.855072" stop-color="#F7E0F4"/><stop offset="0.862319" stop-color="#F7E0F4"/><stop offset="0.869565" stop-color="#F7E0F4"/><stop offset="0.876812" stop-color="#F7E1F5"/><stop offset="0.884058" stop-color="#F7E1F5"/><stop offset="0.891304" stop-color="#F7E1F5"/><stop offset="0.898551" stop-color="#F7E2F5"/><stop offset="0.905797" stop-color="#F7E2F5"/><stop offset="0.913043" stop-color="#F7E2F5"/><stop offset="0.92029" stop-color="#F7E2F5"/><stop offset="0.927536" stop-color="#F7E2F5"/><stop offset="0.934783" stop-color="#F7E3F5"/><stop offset="0.942029" stop-color="#F7E3F5"/><stop offset="0.949275" stop-color="#F7E3F5"/><stop offset="0.956522" stop-color="#F7E3F5"/><stop offset="0.963768" stop-color="#F7E3F5"/><stop offset="0.971014" stop-color="#F7E3F5"/><stop offset="0.978261" stop-color="#F7E3F5"/><stop offset="0.985507" stop-color="#F7E3F5"/><stop offset="0.992754" stop-color="#F7E3F5"/><stop offset="1" stop-color="#F8E4F6"/></linearGradient></defs><g transform="translate(-98 -622)"><path d="M1319.85 1189.98C1296.19 1189.98 1277.1 1197.76 1262.57 1213.32 1248.05 1228.88 1240.78 1249.72 1240.78 1275.85 1240.78 1298.88 1248.14 1317.81 1262.87 1332.63 1277.59 1347.46 1296.28 1354.88 1318.93 1354.88 1342.22 1354.88 1361.29 1347.07 1376.16 1331.45 1391.03 1315.83 1398.46 1295.7 1398.46 1271.05 1398.46 1247.03 1391.18 1227.52 1376.63 1212.5 1362.08 1197.48 1343.15 1189.98 1319.85 1189.98ZM2364.15 1189.28C2347.89 1189.28 2334.32 1194.49 2323.45 1204.91 2312.58 1215.33 2305.65 1228.62 2302.66 1244.76 2310.16 1245.94 2319.66 1246.92 2331.14 1247.71 2342.62 1248.51 2355.6 1248.9 2370.09 1248.9 2388.31 1248.9 2400.03 1247.47 2405.26 1244.61 2410.5 1241.76 2413.11 1236.7 2413.11 1229.44 2413.11 1217.17 2408.79 1207.41 2400.15 1200.15 2391.5 1192.9 2379.5 1189.28 2364.15 1189.28ZM2518.89 1172.37 2518.87 1172.37C2518.87 1172.54 2518.87 1172.58 2518.88 1172.5ZM1498.77 1153.41C1510.99 1153.41 1521.99 1170.69 1531.79 1205.26 1535.89 1219.04 1538.97 1229.42 1541.02 1236.4 1551.01 1268.22 1559.71 1293.09 1567.09 1311.01 1574.48 1328.92 1578.6 1337.88 1579.44 1337.88 1580.55 1337.88 1586.58 1327.02 1597.53 1305.3 1608.48 1283.58 1617.78 1258.7 1625.43 1230.65 1627.87 1221.81 1630.43 1210.51 1633.13 1196.75 1638.35 1170.34 1647.27 1157.14 1659.88 1157.14 1672.1 1157.14 1681.76 1173.59 1688.84 1206.49 1690.63 1214.72 1692.23 1221.92 1693.64 1228.1 1700.77 1258.71 1708.53 1284.66 1716.91 1305.95 1725.29 1327.24 1730.12 1337.88 1731.41 1337.88 1731.04 1337.88 1732.72 1335.29 1736.45 1330.11 1740.18 1324.92 1744.68 1317.74 1749.95 1308.56 1763.66 1284.19 1773.85 1262.09 1780.51 1242.28 1787.17 1222.46 1790.5 1204.53 1790.5 1188.49 1790.5 1183.85 1790.12 1179.53 1789.35 1175.53 1788.57 1171.53 1787.21 1165.79 1785.25 1158.31 1792.18 1156.04 1797.31 1154.65 1800.63 1154.15 1803.95 1153.66 1807.06 1153.41 1809.96 1153.41 1819.92 1153.41 1827.59 1156.06 1832.97 1161.36 1838.35 1166.66 1841.05 1174.09 1841.05 1183.64 1841.05 1200.83 1835.12 1223.63 1823.26 1252.03 1811.4 1280.44 1794.9 1310.84 1773.76 1343.25 1763.59 1358.97 1754.25 1371.2 1745.74 1379.95 1737.24 1388.7 1729.78 1393.07 1723.35 1393.07 1712.15 1393.07 1701.09 1380.41 1690.16 1355.08 1679.23 1329.76 1668.24 1291.45 1657.17 1240.17 1645.64 1284.42 1631.88 1320.97 1615.91 1349.81 1599.94 1378.65 1586.03 1393.07 1574.19 1393.07 1567.88 1393.07 1560.75 1386.99 1552.79 1374.82 1544.83 1362.65 1536.21 1345.68 1526.93 1323.9 1519.38 1306.4 1509.98 1282.97 1498.75 1253.61 1483.49 1213.42 1471.66 1189.13 1463.27 1180.75 1469.36 1171.02 1475.41 1164.03 1481.43 1159.78 1487.45 1155.53 1493.23 1153.41 1498.77 1153.41ZM2368.73 1151.31C2395.05 1151.31 2416.79 1158.92 2433.95 1174.13 2451.11 1189.34 2459.7 1208.7 2459.7 1232.2 2459.7 1251.48 2452.4 1265.17 2437.82 1273.29 2423.24 1281.41 2399.46 1285.47 2366.47 1285.47 2354.21 1285.47 2341.98 1285.04 2329.8 1284.18 2323.71 1283.76 2318.17 1283.23 2313.19 1282.6L2299.97 1280.44 2300.22 1287.21C2301.65 1305.9 2308.07 1320.9 2319.49 1332.22 2332.53 1345.15 2350.39 1351.61 2373.06 1351.61 2383.86 1351.61 2393.8 1350.21 2402.87 1347.39 2411.94 1344.58 2421.45 1340.04 2431.39 1333.78 2437.02 1339.47 2440.74 1344.34 2442.54 1348.39 2444.35 1352.44 2445.25 1356.42 2445.25 1360.35 2445.25 1370.57 2438.49 1378.58 2424.97 1384.38 2411.44 1390.18 2394.43 1393.07 2373.94 1393.07 2336.25 1393.07 2306.64 1382.71 2285.13 1361.99 2263.63 1341.27 2252.87 1312.71 2252.87 1276.3 2252.87 1239.79 2263.7 1209.83 2285.36 1186.42 2307.03 1163.02 2334.81 1151.31 2368.73 1151.31ZM1324.64 1148.98C1360.19 1148.98 1389.53 1160.2 1412.67 1182.63 1435.8 1205.06 1447.37 1233.32 1447.37 1267.41 1447.37 1281 1445.19 1294.56 1440.81 1308.09 1436.43 1321.63 1430.5 1333.18 1423.01 1342.74 1409.1 1360.72 1393.24 1374.26 1375.42 1383.37 1357.6 1392.48 1337.86 1397.03 1316.19 1397.03 1279.58 1397.03 1249.71 1385.7 1226.57 1363.03 1203.44 1340.36 1191.87 1311.31 1191.87 1275.86 1191.87 1238.26 1204.21 1207.71 1228.88 1184.22 1253.55 1160.73 1285.47 1148.98 1324.64 1148.98ZM2545.45 1091.45C2553.34 1091.45 2559.1 1093.95 2562.72 1098.95 2566.34 1103.94 2568.16 1111.3 2568.16 1121.01 2568.16 1124.31 2567.44 1136.54 2566 1157.7 2565.57 1164.83 2565.22 1168.94 2564.97 1170.04 2569.89 1168.92 2576.14 1168.04 2583.71 1167.41 2591.29 1166.77 2597.75 1166.45 2603.11 1166.45 2609.3 1166.45 2614.03 1167.8 2617.29 1170.49 2620.56 1173.19 2622.19 1177.28 2622.19 1182.76 2622.19 1185.58 2621.42 1188.91 2619.86 1192.75 2618.31 1196.6 2615.56 1201.52 2611.62 1207.52 2605.52 1206.62 2600.31 1205.95 2596 1205.52 2591.69 1205.1 2586.58 1204.88 2580.67 1204.88 2579.7 1204.88 2576.55 1204.99 2571.22 1205.21 2565.88 1205.43 2562.79 1205.56 2561.93 1205.59 2560.72 1226.6 2559.82 1244.43 2559.24 1259.07 2558.66 1273.7 2558.37 1286.47 2558.37 1297.38 2558.37 1318 2559.95 1331.88 2563.11 1339.03 2566.26 1346.18 2571.19 1349.75 2577.89 1349.75 2579.81 1349.75 2581.87 1349.37 2584.08 1348.59 2586.29 1347.82 2590.15 1346.27 2595.65 1343.93 2598.68 1348.95 2600.56 1352.84 2601.3 1355.6 2602.03 1358.35 2602.39 1360.75 2602.39 1362.78 2602.39 1371.74 2598.79 1379.03 2591.58 1384.65 2584.37 1390.26 2575.23 1393.07 2564.16 1393.07 2546.12 1393.07 2532.73 1387.12 2523.98 1375.21 2515.23 1363.3 2510.86 1345.56 2510.86 1321.99 2510.86 1315.45 2511.62 1298.41 2513.15 1270.87 2514.68 1243.33 2515.82 1222.44 2516.58 1208.18 2517.25 1208.18 2515.31 1208.29 2510.75 1208.51 2506.2 1208.73 2503.16 1208.84 2501.64 1208.84 2494.37 1208.84 2488.97 1207.6 2485.43 1205.12 2481.89 1202.64 2480.12 1198.44 2480.12 1192.51 2480.12 1189.99 2480.49 1187.28 2481.22 1184.4 2481.96 1181.51 2483.57 1177.32 2486.06 1171.83 2488.52 1171.83 2491.19 1171.9 2494.08 1172.05 2496.96 1172.2 2499.64 1172.27 2502.1 1172.27 2504.44 1172.27 2507.29 1172.22 2510.62 1172.11L2518.93 1171.74 2518.96 1171.27C2518.99 1170.58 2519.04 1169.61 2519.09 1168.35 2519.25 1165 2519.32 1162.61 2519.32 1161.2 2519.32 1149.86 2518.57 1139.74 2517.08 1130.84 2515.58 1121.94 2513.2 1112.92 2509.95 1103.79 2518.22 1099.25 2525.2 1096.05 2530.88 1094.21 2536.56 1092.37 2541.42 1091.45 2545.45 1091.45ZM2165.43 1052.56C2175.87 1052.56 2183.1 1055.69 2187.12 1061.96 2191.14 1068.22 2193.15 1080.19 2193.15 1097.87 2193.15 1106.94 2192.26 1131.16 2190.47 1170.53 2188.69 1209.89 2187.79 1244.82 2187.79 1275.33 2187.79 1295.28 2188.24 1313.32 2189.14 1329.43 2190.03 1345.55 2191.37 1362.02 2193.15 1378.85L2163.69 1393.95C2133.97 1365.49 2094.61 1322.7 2045.61 1265.58 1996.6 1208.46 1962.56 1167.43 1943.47 1142.49 1943.63 1198.3 1944.69 1257.14 1946.65 1319.03 1947.33 1337.36 1947.66 1347.69 1947.66 1350.01 1947.66 1365.99 1945.69 1376.85 1941.73 1382.6 1937.78 1388.34 1930.59 1391.21 1920.16 1391.21 1914.01 1391.21 1907.66 1390.15 1901.13 1388.02 1894.59 1385.9 1887.43 1382.05 1879.65 1376.47 1887.95 1360.39 1893.75 1339.38 1897.05 1313.44 1900.36 1287.5 1902.01 1241.52 1902.01 1175.52 1902.01 1144.9 1900.18 1123.43 1896.52 1111.11 1892.86 1098.78 1885.92 1089.44 1875.69 1083.09 1883.44 1071.85 1890.18 1064.34 1895.91 1060.54 1901.65 1056.74 1907.58 1054.84 1913.7 1054.84 1919.55 1054.84 1925.13 1056.6 1930.44 1060.11 1935.75 1063.62 1941.96 1069.49 1949.07 1077.72 1950.57 1079.41 1951.93 1082.21 1953.16 1086.13 2015.23 1157.67 2079.48 1232.81 2145.91 1311.55 2146.21 1291.97 2146.47 1273.5 2146.69 1256.14 2146.92 1238.79 2147.03 1223.94 2147.03 1211.61 2147.03 1171.59 2145.46 1141.1 2142.31 1120.12 2139.16 1099.14 2133.9 1081.14 2126.54 1066.11 2135.33 1060.79 2142.67 1057.2 2148.55 1055.34 2154.43 1053.49 2160.06 1052.56 2165.43 1052.56ZM3129.66 1050.27C3144.66 1053.66 3155.4 1057.67 3161.89 1062.32 3168.39 1066.97 3171.63 1072.81 3171.63 1079.83 3171.63 1090.08 3147.73 1117.79 3099.93 1162.95 3079.89 1181.79 3064.52 1195.86 3053.82 1205.17 3057.6 1208.49 3065.98 1216.65 3078.93 1229.64 3155.62 1309.81 3202.51 1350.42 3219.61 1351.48 3216.78 1366.96 3212.53 1378.15 3206.86 1385.05 3201.2 1391.95 3194.53 1395.4 3186.86 1395.4 3180.07 1395.4 3173.1 1393.06 3165.95 1388.37 3158.8 1383.68 3149.41 1375.21 3137.79 1362.96 3137.43 1362.04 3121.69 1344.33 3090.59 1309.81 3059.49 1275.29 3032.4 1245.03 3009.29 1219.01L3009.29 1247.69C3009.29 1283.56 3010.19 1310.83 3011.97 1329.5 3013.76 1348.17 3016.75 1363.3 3020.94 1374.88 3011.97 1381.05 3004.44 1385.32 2998.34 1387.67 2992.25 1390.03 2986.36 1391.21 2980.67 1391.21 2971.22 1391.21 2964.47 1387.74 2960.41 1380.79 2956.35 1373.84 2954.33 1363.43 2954.33 1349.55 2954.33 1341.99 2955.06 1321.01 2956.54 1286.59 2958.01 1252.17 2958.75 1221.54 2958.75 1194.71 2958.75 1157.79 2957.66 1130.22 2955.48 1112 2953.3 1093.77 2949.65 1078.75 2944.54 1066.94 2953.7 1061.6 2961.58 1057.87 2968.2 1055.74 2974.81 1053.62 2980.97 1052.56 2986.66 1052.56 2996.39 1052.56 3003.21 1055.29 3007.13 1060.74 3011.06 1066.2 3013.02 1075.15 3013.02 1087.59 3013.02 1089.05 3012.76 1094.94 3012.24 1105.24 3010.43 1139.8 3009.45 1171.96 3009.29 1201.7 3042.94 1164.12 3069.76 1133.49 3089.74 1109.8 3109.73 1086.11 3123.04 1066.27 3129.66 1050.27ZM997.372 1049.3C1009.98 1049.3 1019.23 1051.02 1025.14 1054.45 1031.06 1057.89 1034.01 1063.82 1034.01 1072.25 1034.01 1077.25 1033.15 1082.53 1031.43 1088.08 1029.72 1093.64 1026.31 1100.51 1021.23 1108.69 1012.3 1104.8 1001.9 1101.96 990.031 1100.18 978.16 1098.4 963.568 1097.51 946.255 1097.51 939.916 1097.51 932.386 1097.62 923.665 1097.85 914.944 1098.07 906.598 1098.35 898.625 1098.68L898.429 1126.45C898.429 1128.5 898.25 1140.77 897.894 1163.26 897.741 1177.63 897.612 1187.84 897.508 1193.89 897.042 1193.83 897.53 1193.82 898.973 1193.87 900.415 1193.91 903.926 1193.93 909.506 1193.93 941.243 1193.93 963.833 1193.42 977.276 1192.4 990.719 1191.37 1003.07 1189.52 1014.32 1186.85 1016.98 1191.54 1018.75 1195.53 1019.64 1198.82 1020.52 1202.11 1020.97 1205.16 1020.97 1207.95 1020.97 1218.95 1017.72 1226.74 1011.23 1231.32 1004.74 1235.89 993.725 1238.18 978.193 1238.18 976.825 1238.18 973.582 1238.18 968.465 1238.18 950.466 1237.87 933.93 1237.72 918.859 1237.72 916.324 1237.72 912.025 1237.8 905.962 1237.95 899.899 1238.1 896.776 1238.18 896.594 1238.18 896.594 1276.36 897.749 1306.03 900.059 1327.18 902.369 1348.34 906.183 1364.89 911.501 1376.84 901.976 1382.33 893.937 1386.1 887.385 1388.14 880.834 1390.19 874.628 1391.21 868.769 1391.21 858.899 1391.21 852.025 1388.62 848.146 1383.44 844.266 1378.25 842.326 1369.17 842.326 1356.18 842.326 1351.21 843.219 1324.37 845.005 1275.66 846.791 1226.96 847.683 1180.64 847.683 1136.7 847.683 1120.15 847.042 1105.56 845.758 1092.94 844.475 1080.33 842.453 1067.1 839.692 1053.26 850.663 1053.62 859.177 1053.9 865.235 1054.11 871.293 1054.32 877.73 1054.42 884.545 1054.42 902.673 1054.42 924.222 1053.57 949.19 1051.86 974.159 1050.15 990.22 1049.3 997.372 1049.3ZM2898.55 1046.97C2903.42 1053.71 2906.65 1059.3 2908.24 1063.73 2909.83 1068.16 2910.62 1072.35 2910.62 1076.31 2910.62 1086.18 2907 1093.42 2899.77 1098.04 2892.53 1102.66 2882.03 1104.96 2868.27 1104.96 2863.41 1104.96 2851.88 1104.54 2833.71 1103.7 2815.53 1102.86 2802.71 1102.27 2795.24 1101.94 2794.3 1125.75 2793.57 1148.84 2793.06 1171.2 2792.56 1193.57 2792.3 1215.73 2792.3 1237.69 2792.3 1275.83 2793.45 1305.46 2795.76 1326.58 2798.06 1347.7 2801.86 1364.43 2807.15 1376.76 2797.78 1382.55 2789.65 1386.49 2782.77 1388.56 2775.89 1390.64 2769.24 1391.68 2762.84 1391.68 2753.44 1391.68 2746.8 1388.99 2742.92 1383.61 2739.04 1378.23 2737.1 1369.09 2737.1 1356.17 2737.1 1348.3 2737.92 1324.6 2739.55 1285.06 2741.18 1245.52 2741.99 1209.96 2741.99 1178.4 2741.99 1170.42 2741.76 1153.38 2741.3 1127.28 2741.14 1114.59 2741.06 1106.14 2741.06 1101.94L2728.31 1101.94C2706.41 1101.94 2688.74 1102.9 2675.27 1104.84 2661.81 1106.78 2650.2 1109.92 2640.43 1114.28 2635.25 1105.58 2631.78 1098.71 2630.03 1093.69 2628.28 1088.66 2627.4 1083.99 2627.4 1079.68 2627.4 1071.11 2630.34 1065.06 2636.22 1061.55 2642.1 1058.04 2651.3 1056.28 2663.81 1056.28 2669.06 1056.28 2686.07 1056.98 2714.85 1058.38 2743.64 1059.78 2769.87 1060.48 2793.57 1060.48 2821.07 1060.48 2842.77 1059.44 2858.69 1057.36 2874.6 1055.28 2887.89 1051.82 2898.55 1046.97ZM1117.12 1046.27C1126.41 1046.27 1132.83 1048.73 1136.38 1053.65 1139.93 1058.57 1141.7 1067.33 1141.7 1079.93 1141.7 1088.58 1140.85 1113.6 1139.14 1154.98 1137.43 1196.37 1136.58 1233.38 1136.58 1266 1136.58 1299.86 1137.51 1324.31 1139.36 1339.34 1141.22 1354.37 1144.51 1367.31 1149.24 1378.16 1140.84 1383.31 1133.68 1386.77 1127.76 1388.54 1121.83 1390.32 1116.13 1391.21 1110.65 1391.21 1101.59 1391.21 1095.34 1388.59 1091.9 1383.36 1088.46 1378.12 1086.74 1369.22 1086.74 1356.64 1086.74 1342.08 1087.59 1314.52 1089.3 1273.95 1091.01 1233.37 1091.86 1199.98 1091.86 1173.76 1091.86 1141.58 1090.89 1117.23 1088.94 1100.72 1086.99 1084.21 1083.62 1070.46 1078.82 1059.47 1086.85 1054.24 1093.88 1050.73 1099.89 1048.95 1105.91 1047.16 1111.66 1046.27 1117.12 1046.27Z" stroke="#262626" stroke-width="10" stroke-linejoin="round" stroke-miterlimit="10" fill="url(#fill0)" fill-rule="evenodd"/><text fill="#000000" fill-opacity="0" font-family="Arial,Arial_MSFontService,sans-serif" font-size="350.763" x="839.692" y="1353.19">FlowNetTK</text><path d="M359.915 765.653 416.972 787.71 322.704 1031.56 265.648 1009.5Z" fill="#BABBC6" fill-rule="evenodd"/><path d="M1021.9 1715.4C723.745 1886.92 349.881 1796.25 186.853 1512.86 23.8255 1229.48 133.369 860.703 431.525 689.176 210.767 995.24 278.716 1407.07 583.295 1609.02 710.331 1693.25 865.26 1730.82 1021.9 1715.39Z" fill="#BABBC6" fill-rule="evenodd"/><path d="M463.555 1412.27C273.337 1245.36 249.155 961.875 409.542 779.093 569.93 596.311 854.153 583.446 1044.37 750.359 722.317 817.302 488.076 1084.25 463.556 1412.27Z" fill="#BABBC6" fill-rule="evenodd"/><path d="M673.714 1709.17C522.048 1694.06 420.071 1471.27 445.942 1211.55 471.814 951.833 615.737 753.537 767.403 768.645 603.241 878.974 508.571 1184.87 555.95 1451.89 575.318 1561.04 616.823 1651.72 673.714 1709.17Z" fill="url(#fill1)" fill-rule="evenodd"/><path d="M695.174 1653.65C564.879 1682.05 416.451 1508.67 363.651 1266.4 310.851 1024.12 373.673 804.703 503.968 776.307 399.174 921.715 408.039 1224.87 523.769 1453.43 571.077 1546.86 631.488 1617.43 695.174 1653.65Z" fill="url(#fill2)" fill-rule="evenodd"/><path d="M1081.15 1676.54C731.185 1823.59 357.995 1729.83 247.603 1467.11 137.212 1204.39 331.422 872.204 681.384 725.154 420.856 1085.05 528.986 1493.2 922.899 1636.78 972.633 1654.91 1025.67 1668.24 1081.15 1676.54Z" fill="url(#fill3)" fill-rule="evenodd"/><path d="M1081.28 1676.2C705.197 1691.09 392.094 1495.49 381.946 1239.3 371.798 983.109 668.448 763.35 1044.53 748.453 672.45 864.386 499.281 1161.29 657.749 1411.6 737.243 1537.17 890.612 1632.99 1081.28 1676.2Z" fill="#595959" fill-rule="evenodd"/><path d="M1081.27 1676.23C812.578 1868.43 464.977 1842.79 304.878 1618.96 144.779 1395.14 232.808 1057.9 501.496 865.705 279.648 1123.38 293.317 1468.13 532.026 1635.72 679.415 1739.2 886.446 1754.47 1081.27 1676.23Z" fill="#595959" fill-rule="evenodd"/><path d="M284.114 1637.36C52.5953 1439 35.1537 1079.5 245.157 834.392 455.16 589.288 813.084 551.398 1044.6 749.761 782.918 586.605 427.499 676.136 250.752 949.734 108.7 1169.63 122.285 1449.64 284.114 1637.36Z" fill="#595959" fill-rule="evenodd"/></g></svg>