<svg width="3148" height="1413" xmlns="http://www.w3.org/2000/svg" xmlns:xlink="http://www.w3.org/1999/xlink" xml:space="preserve" overflow="hidden"><defs><linearGradient x1="1298.55" y1="1362.05" x2="623.68" y2="845.85" gradientUnits="userSpaceOnUse" spreadMethod="reflect" id="fill0"><stop offset="0" stop-color="#D359C4"/><stop offset="0.00724638" stop-color="#D35AC4"/><stop offset="0.0144928" stop-color="#D35CC5"/><stop offset="0.0217391" stop-color="#D45EC6"/><stop offset="0.0289855" stop-color="#D460C6"/><stop offset="0.0362319" stop-color="#D562C7"/><stop offset="0.0434783" stop-color="#D564C7"/><stop offset="0.0507246" stop-color="#D665C8"/><stop offset="0.057971" stop-color="#D667C9"/><stop offset="0.0652174" stop-color="#D769C9"/><stop offset="0.0724638" stop-color="#D76BCA"/><stop offset="0.0797101" stop-color="#D86DCB"/><stop offset="0.0869565" stop-color="#D86ECB"/><stop offset="0.0942029" stop-color="#D970CC"/><stop offset="0.101449" stop-color="#D972CD"/><stop offset="0.108696" stop-color="#DA73CD"/><stop offset="0.115942" stop-color="#DA75CE"/><stop offset="0.123188" stop-color="#DB77CE"/><stop offset="0.130435" stop-color="#DB79CF"/><stop offset="0.137681" stop-color="#DB7AD0"/><stop offset="0.144928" stop-color="#DC7CD0"/><stop offset="0.152174" stop-color="#DC7ED1"/><stop offset="0.15942" stop-color="#DD7FD1"/><stop offset="0.166667" stop-color="#DD81D2"/><stop offset="0.173913" stop-color="#DE82D3"/><stop offset="0.181159" stop-color="#DE84D3"/><stop offset="0.188406" stop-color="#DE86D4"/><stop offset="0.195652" stop-color="#DF87D4"/><stop offset="0.202899" stop-color="#DF89D5"/><stop offset="0.210145" stop-color="#E08AD5"/><stop offset="0.217391" stop-color="#E08CD6"/><stop offset="0.224638" stop-color="#E18DD6"/><stop offset="0.231884" stop-color="#E18FD7"/><stop offset="0.23913" stop-color="#E190D8"/><stop offset="0.246377" stop-color="#E292D8"/><stop offset="0.253623" stop-color="#E293D9"/><stop offset="0.26087" stop-color="#E395D9"/><stop offset="0.268116" stop-color="#E396DA"/><stop offset="0.275362" stop-color="#E398DA"/><stop offset="0.282609" stop-color="#E499DB"/><stop offset="0.289855" stop-color="#E49ADB"/><stop offset="0.297101" stop-color="#E49CDC"/><stop offset="0.304348" stop-color="#E59DDC"/><stop offset="0.311594" stop-color="#E59EDD"/><stop offset="0.318841" stop-color="#E5A0DD"/><stop offset="0.326087" stop-color="#E6A1DE"/><stop offset="0.333333" stop-color="#E6A3DE"/><stop offset="0.34058" stop-color="#E7A4DF"/><stop offset="0.347826" stop-color="#E7A5DF"/><stop offset="0.355072" stop-color="#E7A6E0"/><stop offset="0.362319" stop-color="#E8A8E0"/><stop offset="0.369565" stop-color="#E8A9E0"/><stop offset="0.376812" stop-color="#E8AAE1"/><stop offset="0.384058" stop-color="#E9ABE1"/><stop offset="0.391304" stop-color="#E9ADE2"/><stop offset="0.398551" stop-color="#E9AEE2"/><stop offset="0.405797" stop-color="#EAAFE3"/><stop offset="0.413043" stop-color="#EAB0E3"/><stop offset="0.42029" stop-color="#EAB1E4"/><stop offset="0.427536" stop-color="#EAB3E4"/><stop offset="0.434783" stop-color="#EBB4E4"/><stop offset="0.442029" stop-color="#EBB5E5"/><stop offset="0.449275" stop-color="#EBB6E5"/><stop offset="0.456522" stop-color="#ECB7E6"/><stop offset="0.463768" stop-color="#ECB8E6"/><stop offset="0.471014" stop-color="#ECB9E6"/><stop offset="0.478261" stop-color="#EDBAE7"/><stop offset="0.485507" stop-color="#EDBCE7"/><stop offset="0.492754" stop-color="#EDBDE7"/><stop offset="0.5" stop-color="#EDBEE8"/><stop offset="0.507246" stop-color="#EEBFE8"/><stop offset="0.514493" stop-color="#EEC0E9"/><stop offset="0.521739" stop-color="#EEC1E9"/><stop offset="0.528986" stop-color="#EEC2E9"/><stop offset="0.536232" stop-color="#EFC3EA"/><stop offset="0.543478" stop-color="#EFC4EA"/><stop offset="0.550725" stop-color="#EFC4EA"/><stop offset="0.557971" stop-color="#EFC5EB"/><stop offset="0.565217" stop-color="#F0C6EB"/><stop offset="0.572464" stop-color="#F0C7EB"/><stop offset="0.57971" stop-color="#F0C8EC"/><stop offset="0.586957" stop-color="#F0C9EC"/><stop offset="0.594203" stop-color="#F1CAEC"/><stop offset="0.601449" stop-color="#F1CBED"/><stop offset="0.608696" stop-color="#F1CCED"/><stop offset="0.615942" stop-color="#F1CCED"/><stop offset="0.623188" stop-color="#F2CDED"/><stop offset="0.630435" stop-color="#F2CEEE"/><stop offset="0.637681" stop-color="#F2CFEE"/><stop offset="0.644928" stop-color="#F2D0EE"/><stop offset="0.652174" stop-color="#F2D0EF"/><stop offset="0.65942" stop-color="#F3D1EF"/><stop offset="0.666667" stop-color="#F3D2EF"/><stop offset="0.673913" stop-color="#F3D2EF"/><stop offset="0.681159" stop-color="#F3D3F0"/><stop offset="0.688406" stop-color="#F3D4F0"/><stop offset="0.695652" stop-color="#F4D5F0"/><stop offset="0.702899" stop-color="#F4D5F0"/><stop offset="0.710145" stop-color="#F4D6F1"/><stop offset="0.717391" stop-color="#F4D6F1"/><stop offset="0.724638" stop-color="#F4D7F1"/><stop offset="0.731884" stop-color="#F4D8F1"/><stop offset="0.73913" stop-color="#F5D8F1"/><stop offset="0.746377" stop-color="#F5D9F2"/><stop offset="0.753623" stop-color="#F5D9F2"/><stop offset="0.76087" stop-color="#F5DAF2"/><stop offset="0.768116" stop-color="#F5DBF2"/><stop offset="0.775362" stop-color="#F5DBF2"/><stop offset="0.782609" stop-color="#F5DCF3"/><stop offset="0.789855" stop-color="#F6DCF3"/><stop offset="0.797101" stop-color="#F6DDF3"/><stop offset="0.804348" stop-color="#F6DDF3"/><stop offset="0.811594" stop-color="#F6DDF3"/><stop offset="0.818841" stop-color="#F6DEF3"/><stop offset="0.826087" stop-color="#F6DEF4"/><stop offset="0.833333" stop-color="#F6DFF4"/><stop offset="0.84058" stop-color="#F6DFF4"/><stop offset="0.847826" stop-color="#F6DFF4"/><stop offset="0.855072" stop-color="#F7E0F4"/><stop offset="0.862319" stop-color="#F7E0F4"/><stop offset="0.869565" stop-color="#F7E0F4"/><stop offset="0.876812" stop-color="#F7E1F5"/><stop offset="0.884058" stop-color="#F7E1F5"/><stop offset="0.891304" stop-color="#F7E1F5"/><stop offset="0.898551" stop-color="#F7E2F5"/><stop offset="0.905797" stop-color="#F7E2F5"/><stop offset="0.913043" stop-color="#F7E2F5"/><stop offset="0.92029" stop-color="#F7E2F5"/><stop offset="0.927536" stop-color="#F7E2F5"/><stop offset="0.934783" stop-color="#F7E3F5"/><stop offset="0.942029" stop-color="#F7E3F5"/><stop offset="0.949275" stop-color="#F7E3F5"/><stop offset="0.956522" stop-color="#F7E3F5"/><stop offset="0.963768" stop-color="#F7E3F5"/><stop offset="0.971014" stop-color="#F7E3F5"/><stop offset="0.978261" stop-color="#F7E3F5"/><stop offset="0.985507" stop-color="#F7E3F5"/><stop offset="0.992754" stop-color="#F7E3F5"/><stop offset="1" stop-color="#F8E4F6"/></linearGradient><linearGradient x1="1209.76" y1="1249.44" x2="468.748" y2="988.066" gradientUnits="userSpaceOnUse" spreadMethod="reflect" id="fill1"><stop offset="0" stop-color="#D359C4"/><stop offset="0.00724638" stop-color="#D35AC4"/><stop offset="0.0144928" stop-color="#D35CC5"/><stop offset="0.0217391" stop-color="#D45EC6"/><stop offset="0.0289855" stop-color="#D460C6"/><stop offset="0.0362319" stop-color="#D562C7"/><stop offset="0.0434783" stop-color="#D564C7"/><stop offset="0.0507246" stop-color="#D665C8"/><stop offset="0.057971" stop-color="#D667C9"/><stop offset="0.0652174" stop-color="#D769C9"/><stop offset="0.0724638" stop-color="#D76BCA"/><stop offset="0.0797101" stop-color="#D86DCB"/><stop offset="0.0869565" stop-color="#D86ECB"/><stop offset="0.0942029" stop-color="#D970CC"/><stop offset="0.101449" stop-color="#D972CD"/><stop offset="0.108696" stop-color="#DA73CD"/><stop offset="0.115942" stop-color="#DA75CE"/><stop offset="0.123188" stop-color="#DB77CE"/><stop offset="0.130435" stop-color="#DB79CF"/><stop offset="0.137681" stop-color="#DB7AD0"/><stop offset="0.144928" stop-color="#DC7CD0"/><stop offset="0.152174" stop-color="#DC7ED1"/><stop offset="0.15942" stop-color="#DD7FD1"/><stop offset="0.166667" stop-color="#DD81D2"/><stop offset="0.173913" stop-color="#DE82D3"/><stop offset="0.181159" stop-color="#DE84D3"/><stop offset="0.188406" stop-color="#DE86D4"/><stop offset="0.195652" stop-color="#DF87D4"/><stop offset="0.202899" stop-color="#DF89D5"/><stop offset="0.210145" stop-color="#E08AD5"/><stop offset="0.217391" stop-color="#E08CD6"/><stop offset="0.224638" stop-color="#E18DD6"/><stop offset="0.231884" stop-color="#E18FD7"/><stop offset="0.23913" stop-color="#E190D8"/><stop offset="0.246377" stop-color="#E292D8"/><stop offset="0.253623" stop-color="#E293D9"/><stop offset="0.26087" stop-color="#E395D9"/><stop offset="0.268116" stop-color="#E396DA"/><stop offset="0.275362" stop-color="#E398DA"/><stop offset="0.282609" stop-color="#E499DB"/><stop offset="0.289855" stop-color="#E49ADB"/><stop offset="0.297101" stop-color="#E49CDC"/><stop offset="0.304348" stop-color="#E59DDC"/><stop offset="0.311594" stop-color="#E59EDD"/><stop offset="0.318841" stop-color="#E5A0DD"/><stop offset="0.326087" stop-color="#E6A1DE"/><stop offset="0.333333" stop-color="#E6A3DE"/><stop offset="0.34058" stop-color="#E7A4DF"/><stop offset="0.347826" stop-color="#E7A5DF"/><stop offset="0.355072" stop-color="#E7A6E0"/><stop offset="0.362319" stop-color="#E8A8E0"/><stop offset="0.369565" stop-color="#E8A9E0"/><stop offset="0.376812" stop-color="#E8AAE1"/><stop offset="0.384058" stop-color="#E9ABE1"/><stop offset="0.391304" stop-color="#E9ADE2"/><stop offset="0.398551" stop-color="#E9AEE2"/><stop offset="0.405797" stop-color="#EAAFE3"/><stop offset="0.413043" stop-color="#EAB0E3"/><stop offset="0.42029" stop-color="#EAB1E4"/><stop offset="0.427536" stop-color="#EAB3E4"/><stop offset="0.434783" stop-color="#EBB4E4"/><stop offset="0.442029" stop-color="#EBB5E5"/><stop offset="0.449275" stop-color="#EBB6E5"/><stop offset="0.456522" stop-color="#ECB7E6"/><stop offset="0.463768" stop-color="#ECB8E6"/><stop offset="0.471014" stop-color="#ECB9E6"/><stop offset="0.478261" stop-color="#EDBAE7"/><stop offset="0.485507" stop-color="#EDBCE7"/><stop offset="0.492754" stop-color="#EDBDE7"/><stop offset="0.5" stop-color="#EDBEE8"/><stop offset="0.507246" stop-color="#EEBFE8"/><stop offset="0.514493" stop-color="#EEC0E9"/><stop offset="0.521739" stop-color="#EEC1E9"/><stop offset="0.528986" stop-color="#EEC2E9"/><stop offset="0.536232" stop-color="#EFC3EA"/><stop offset="0.543478" stop-color="#EFC4EA"/><stop offset="0.550725" stop-color="#EFC4EA"/><stop offset="0.557971" stop-color="#EFC5EB"/><stop offset="0.565217" stop-color="#F0C6EB"/><stop offset="0.572464" stop-color="#F0C7EB"/><stop offset="0.57971" stop-color="#F0C8EC"/><stop offset="0.586957" stop-color="#F0C9EC"/><stop offset="0.594203" stop-color="#F1CAEC"/><stop offset="0.601449" stop-color="#F1CBED"/><stop offset="0.608696" stop-color="#F1CCED"/><stop offset="0.615942" stop-color="#F1CCED"/><stop offset="0.623188" stop-color="#F2CDED"/><stop offset="0.630435" stop-color="#F2CEEE"/><stop offset="0.637681" stop-color="#F2CFEE"/><stop offset="0.644928" stop-color="#F2D0EE"/><stop offset="0.652174" stop-color="#F2D0EF"/><stop offset="0.65942" stop-color="#F3D1EF"/><stop offset="0.666667" stop-color="#F3D2EF"/><stop offset="0.673913" stop-color="#F3D2EF"/><stop offset="0.681159" stop-color="#F3D3F0"/><stop offset="0.688406" stop-color="#F3D4F0"/><stop offset="0.695652" stop-color="#F4D5F0"/><stop offset="0.702899" stop-color="#F4D5F0"/><stop offset="0.710145" stop-color="#F4D6F1"/><stop offset="0.717391" stop-color="#F4D6F1"/><stop offset="0.724638" stop-color="#F4D7F1"/><stop offset="0.731884" stop-color="#F4D8F1"/><stop offset="0.73913" stop-color="#F5D8F1"/><stop offset="0.746377" stop-color="#F5D9F2"/><stop offset="0.753623" stop-color="#F5D9F2"/><stop offset="0.76087" stop-color="#F5DAF2"/><stop offset="0.768116" stop-color="#F5DBF2"/><stop offset="0.775362" stop-color="#F5DBF2"/><stop offset="0.782609" stop-color="#F5DCF3"/><stop offset="0.789855" stop-color="#F6DCF3"/><stop offset="0.797101" stop-color="#F6DDF3"/><stop offset="0.804348" stop-color="#F6DDF3"/><stop offset="0.811594" stop-color="#F6DDF3"/><stop offset="0.818841" stop-color="#F6DEF3"/><stop offset="0.826087" stop-color="#F6DEF4"/><stop offset="0.833333" stop-color="#F6DFF4"/><stop offset="0.84058" stop-color="#F6DFF4"/><stop offset="0.847826" stop-color="#F6DFF4"/><stop offset="0.855072" stop-color="#F7E0F4"/><stop offset="0.862319" stop-color="#F7E0F4"/><stop offset="0.869565" stop-color="#F7E0F4"/><stop offset="0.876812" stop-color="#F7E1F5"/><stop offset="0.884058" stop-color="#F7E1F5"/><stop offset="0.891304" stop-color="#F7E1F5"/><stop offset="0.898551" stop-color="#F7E2F5"/><stop offset="0.905797" stop-color="#F7E2F5"/><stop offset="0.913043" stop-color="#F7E2F5"/><stop offset="0.92029" stop-color="#F7E2F5"/><stop offset="0.927536" stop-color="#F7E2F5"/><stop offset="0.934783" stop-color="#F7E3F5"/><stop offset="0.942029" stop-color="#F7E3F5"/><stop offset="0.949275" stop-color="#F7E3F5"/><stop offset="0.956522" stop-color="#F7E3F5"/><stop offset="0.963768" stop-color="#F7E3F5"/><stop offset="0.971014" stop-color="#F7E3F5"/><stop offset="0.978261" stop-color="#F7E3F5"/><stop offset="0.985507" stop-color="#F7E3F5"/><stop offset="0.992754" stop-color="#F7E3F5"/><stop offset="1" stop-color="#F8E4F6"/></linearGradient><linearGradient x1="1590.13" y1="1336.06" x2="279.384" y2="1130.07" gradientUnits="userSpaceOnUse" spreadMethod="reflect" id="fill2"><stop offset="0" stop-color="#D359C4"/><stop offset="0.00724638" stop-color="#D35AC4"/><stop offset="0.0144928" stop-color="#D35CC5"/><stop offset="0.0217391" stop-color="#D45EC6"/><stop offset="0.0289855" stop-color="#D460C6"/><stop offset="0.0362319" stop-color="#D562C7"/><stop offset="0.0434783" stop-color="#D564C7"/><stop offset="0.0507246" stop-color="#D665C8"/><stop offset="0.057971" stop-color="#D667C9"/><stop offset="0.0652174" stop-color="#D769C9"/><stop offset="0.0724638" stop-color="#D76BCA"/><stop offset="0.0797101" stop-color="#D86DCB"/><stop offset="0.0869565" stop-color="#D86ECB"/><stop offset="0.0942029" stop-color="#D970CC"/><stop offset="0.101449" stop-color="#D972CD"/><stop offset="0.108696" stop-color="#DA73CD"/><stop offset="0.115942" stop-color="#DA75CE"/><stop offset="0.123188" stop-color="#DB77CE"/><stop offset="0.130435" stop-color="#DB79CF"/><stop offset="0.137681" stop-color="#DB7AD0"/><stop offset="0.144928" stop-color="#DC7CD0"/><stop offset="0.152174" stop-color="#DC7ED1"/><stop offset="0.15942" stop-color="#DD7FD1"/><stop offset="0.166667" stop-color="#DD81D2"/><stop offset="0.173913" stop-color="#DE82D3"/><stop offset="0.181159" stop-color="#DE84D3"/><stop offset="0.188406" stop-color="#DE86D4"/><stop offset="0.195652" stop-color="#DF87D4"/><stop offset="0.202899" stop-color="#DF89D5"/><stop offset="0.210145" stop-color="#E08AD5"/><stop offset="0.217391" stop-color="#E08CD6"/><stop offset="0.224638" stop-color="#E18DD6"/><stop offset="0.231884" stop-color="#E18FD7"/><stop offset="0.23913" stop-color="#E190D8"/><stop offset="0.246377" stop-color="#E292D8"/><stop offset="0.253623" stop-color="#E293D9"/><stop offset="0.26087" stop-color="#E395D9"/><stop offset="0.268116" stop-color="#E396DA"/><stop offset="0.275362" stop-color="#E398DA"/><stop offset="0.282609" stop-color="#E499DB"/><stop offset="0.289855" stop-color="#E49ADB"/><stop offset="0.297101" stop-color="#E49CDC"/><stop offset="0.304348" stop-color="#E59DDC"/><stop offset="0.311594" stop-color="#E59EDD"/><stop offset="0.318841" stop-color="#E5A0DD"/><stop offset="0.326087" stop-color="#E6A1DE"/><stop offset="0.333333" stop-color="#E6A3DE"/><stop offset="0.34058" stop-color="#E7A4DF"/><stop offset="0.347826" stop-color="#E7A5DF"/><stop offset="0.355072" stop-color="#E7A6E0"/><stop offset="0.362319" stop-color="#E8A8E0"/><stop offset="0.369565" stop-color="#E8A9E0"/><stop offset="0.376812" stop-color="#E8AAE1"/><stop offset="0.384058" stop-color="#E9ABE1"/><stop offset="0.391304" stop-color="#E9ADE2"/><stop offset="0.398551" stop-color="#E9AEE2"/><stop offset="0.405797" stop-color="#EAAFE3"/><stop offset="0.413043" stop-color="#EAB0E3"/><stop offset="0.42029" stop-color="#EAB1E4"/><stop offset="0.427536" stop-color="#EAB3E4"/><stop offset="0.434783" stop-color="#EBB4E4"/><stop offset="0.442029" stop-color="#EBB5E5"/><stop offset="0.449275" stop-color="#EBB6E5"/><stop offset="0.456522" stop-color="#ECB7E6"/><stop offset="0.463768" stop-color="#ECB8E6"/><stop offset="0.471014" stop-color="#ECB9E6"/><stop offset="0.478261" stop-color="#EDBAE7"/><stop offset="0.485507" stop-color="#EDBCE7"/><stop offset="0.492754" stop-color="#EDBDE7"/><stop offset="0.5" stop-color="#EDBEE8"/><stop offset="0.507246" stop-color="#EEBFE8"/><stop offset="0.514493" stop-color="#EEC0E9"/><stop offset="0.521739" stop-color="#EEC1E9"/><stop offset="0.528986" stop-color="#EEC2E9"/><stop offset="0.536232" stop-color="#EFC3EA"/><stop offset="0.543478" stop-color="#EFC4EA"/><stop offset="0.550725" stop-color="#EFC4EA"/><stop offset="0.557971" stop-color="#EFC5EB"/><stop offset="0.565217" stop-color="#F0C6EB"/><stop offset="0.572464" stop-color="#F0C7EB"/><stop offset="0.57971" stop-color="#F0C8EC"/><stop offset="0.586957" stop-color="#F0C9EC"/><stop offset="0.594203" stop-color="#F1CAEC"/><stop offset="0.601449" stop-color="#F1CBED"/><stop offset="0.608696" stop-color="#F1CCED"/><stop offset="0.615942" stop-color="#F1CCED"/><stop offset="0.623188" stop-color="#F2CDED"/><stop offset="0.630435" stop-color="#F2CEEE"/><stop offset="0.637681" stop-color="#F2CFEE"/><stop offset="0.644928" stop-color="#F2D0EE"/><stop offset="0.652174" stop-color="#F2D0EF"/><stop offset="0.65942" stop-color="#F3D1EF"/><stop offset="0.666667" stop-color="#F3D2EF"/><stop offset="0.673913" stop-color="#F3D2EF"/><stop offset="0.681159" stop-color="#F3D3F0"/><stop offset="0.688406" stop-color="#F3D4F0"/><stop offset="0.695652" stop-color="#F4D5F0"/><stop offset="0.702899" stop-color="#F4D5F0"/><stop offset="0.710145" stop-color="#F4D6F1"/><stop offset="0.717391" stop-color="#F4D6F1"/><stop offset="0.724638" stop-color="#F4D7F1"/><stop offset="0.731884" stop-color="#F4D8F1"/><stop offset="0.73913" stop-color="#F5D8F1"/><stop offset="0.746377" stop-color="#F5D9F2"/><stop offset="0.753623" stop-color="#F5D9F2"/><stop offset="0.76087" stop-color="#F5DAF2"/><stop offset="0.768116" stop-color="#F5DBF2"/><stop offset="0.775362" stop-color="#F5DBF2"/><stop offset="0.782609" stop-color="#F5DCF3"/><stop offset="0.789855" stop-color="#F6DCF3"/><stop offset="0.797101" stop-color="#F6DDF3"/><stop offset="0.804348" stop-color="#F6DDF3"/><stop offset="0.811594" stop-color="#F6DDF3"/><stop offset="0.818841" stop-color="#F6DEF3"/><stop offset="0.826087" stop-color="#F6DEF4"/><stop offset="0.833333" stop-color="#F6DFF4"/><stop offset="0.84058" stop-color="#F6DFF4"/><stop offset="0.847826" stop-color="#F6DFF4"/><stop offset="0.855072" stop-color="#F7E0F4"/><stop offset="0.862319" stop-color="#F7E0F4"/><stop offset="0.869565" stop-color="#F7E0F4"/><stop offset="0.876812" stop-color="#F7E1F5"/><stop offset="0.884058" stop-color="#F7E1F5"/><stop offset="0.891304" stop-color="#F7E1F5"/><stop offset="0.898551" stop-color="#F7E2F5"/><stop offset="0.905797" stop-color="#F7E2F5"/><stop offset="0.913043" stop-color="#F7E2F5"/><stop offset="0.92029" stop-color="#F7E2F5"/><stop offset="0.927536" stop-color="#F7E2F5"/><stop offset="0.934783" stop-color="#F7E3F5"/><stop offset="0.942029" stop-color="#F7E3F5"/><stop offset="0.949275" stop-color="#F7E3F5"/><stop offset="0.956522" stop-color="#F7E3F5"/><stop offset="0.963768" stop-color="#F7E3F5"/><stop offset="0.971014" stop-color="#F7E3F5"/><stop offset="0.978261" stop-color="#F7E3F5"/><stop offset="0.985507" stop-color="#F7E3F5"/><stop offset="0.992754" stop-color="#F7E3F5"/><stop offset="1" stop-color="#F8E4F6"/></linearGradient><linearGradient x1="1370.29" y1="505.307" x2="2804.63" y2="1708.86" gradientUnits="userSpaceOnUse" spreadMethod="reflect" id="fill3"><stop offset="0" stop-color="#D359C4"/><stop offset="0.49" stop-color="#E6A2DE"/><stop offset="1" stop-color="#F8E4F6"/></linearGradient></defs><g transform="translate(-382 -388)"><path d="M711.071 547.435 778.376 575.809 657.114 863.452 589.809 835.078Z" fill="#BABBC6" fill-rule="evenodd"/><path d="M1467.04 1704.71C1105.03 1898.72 662.09 1777.07 477.695 1433 293.299 1088.94 437.279 652.741 799.282 458.733 524.821 816.088 591.13 1310.03 947.388 1561.99 1095.98 1667.08 1279.54 1717.49 1467.04 1704.71Z" fill="#BABBC6" fill-rule="evenodd"/><path d="M811.546 1322.89C590.517 1116.85 571.834 777.646 769.818 565.258 967.802 352.869 1307.48 347.722 1528.51 553.76 1141.74 622.091 852.589 932.276 811.546 1322.89Z" fill="#BABBC6" fill-rule="evenodd"/><path d="M1051.7 1684.77C871.236 1661.29 757.529 1391.74 797.732 1082.7 837.935 773.655 1016.82 542.16 1197.29 565.638 997.407 691.419 873.436 1053.1 920.394 1373.48 939.59 1504.45 985.87 1614.16 1051.7 1684.77Z" fill="url(#fill0)" fill-rule="evenodd"/><path d="M1079.31 1619.28C922.788 1648.5 751.867 1436.24 697.55 1145.2 643.233 854.153 726.089 594.535 882.613 565.323 752.323 735.102 752.017 1097.23 881.932 1374.17 935.038 1487.38 1004.6 1573.77 1079.31 1619.29Z" fill="url(#fill1)" fill-rule="evenodd"/><path d="M1539.14 1660.47C1116.19 1823.4 674.159 1698.09 551.842 1380.58 429.525 1063.06 673.239 673.579 1096.19 510.643 772.335 930.813 886.731 1421.82 1351.7 1607.33 1410.41 1630.75 1473.23 1648.56 1539.14 1660.47Z" fill="url(#fill2)" fill-rule="evenodd"/><path d="M1539.31 1660.06C1089.93 1664.33 723.269 1419.64 720.357 1113.51 717.445 807.392 1079.38 555.766 1528.77 551.49 1080.53 676.493 863.196 1024.62 1043.34 1329.06 1133.7 1481.78 1313.31 1601.64 1539.31 1660.06Z" fill="#595959" fill-rule="evenodd"/><path d="M1539.3 1660.1C1211.72 1879.83 797.784 1836.75 614.746 1563.87 431.707 1291 548.877 891.66 876.453 671.929 602.429 971.495 606.363 1383.44 885.241 1592.03 1057.43 1720.82 1303.97 1746.48 1539.3 1660.1Z" fill="#595959" fill-rule="evenodd"/><path d="M589.303 1585.08C320.112 1340.03 312.205 910.341 571.641 625.354 831.077 340.367 1259.61 307.997 1528.8 553.054 1222.35 348.934 794.946 443.025 574.178 763.213 396.745 1020.55 402.904 1355.23 589.302 1585.08Z" fill="#595959" fill-rule="evenodd"/><path d="M2023.97 868.628C2039.03 868.628 2049.45 873.147 2055.25 882.184 2061.05 891.221 2063.94 908.487 2063.94 933.984 2063.94 947.068 2062.66 981.999 2060.08 1038.78 2057.51 1095.56 2056.22 1145.94 2056.22 1189.94 2056.22 1218.72 2056.86 1244.74 2058.16 1267.98 2059.45 1291.22 2061.38 1314.98 2063.94 1339.25L2021.45 1361.03C1978.59 1319.99 1921.81 1258.27 1851.14 1175.88 1780.46 1093.5 1731.35 1034.32 1703.82 998.347 1704.04 1078.84 1705.57 1163.71 1708.41 1252.98 1709.38 1279.41 1709.87 1294.3 1709.87 1297.66 1709.87 1320.71 1707.02 1336.37 1701.31 1344.66 1695.61 1352.94 1685.24 1357.08 1670.21 1357.08 1661.33 1357.08 1652.17 1355.55 1642.75 1352.48 1633.32 1349.42 1623 1343.87 1611.77 1335.83 1623.74 1312.63 1632.1 1282.32 1636.87 1244.9 1641.64 1207.49 1644.02 1141.18 1644.02 1045.98 1644.02 1001.82 1641.38 970.851 1636.1 953.074 1630.82 935.298 1620.81 921.827 1606.06 912.662 1617.23 896.457 1626.95 885.616 1635.23 880.139 1643.5 874.663 1652.05 871.924 1660.88 871.924 1669.31 871.924 1677.36 874.457 1685.02 879.522 1692.68 884.588 1701.64 893.053 1711.9 904.92 1714.06 907.352 1716.03 911.397 1717.8 917.055 1807.33 1020.23 1900 1128.61 1995.81 1242.19 1996.23 1213.94 1996.61 1187.3 1996.94 1162.27 1997.27 1137.23 1997.43 1115.82 1997.43 1098.03 1997.43 1040.32 1995.16 996.331 1990.62 966.073 1986.07 935.816 1978.49 909.852 1967.87 888.181 1980.55 880.496 1991.13 875.316 1999.61 872.641 2008.1 869.966 2016.21 868.628 2023.97 868.628ZM2847.82 865.332C2869.46 870.21 2884.96 876.002 2894.32 882.708 2903.69 889.415 2908.37 897.832 2908.37 907.959 2908.37 922.744 2873.89 962.71 2804.95 1027.86 2776.04 1055.02 2753.87 1075.32 2738.43 1088.75 2743.9 1093.53 2755.98 1105.3 2774.66 1124.05 2885.27 1239.67 2952.91 1298.24 2977.57 1299.77 2973.48 1322.1 2967.35 1338.24 2959.18 1348.2 2951.01 1358.15 2941.4 1363.13 2930.33 1363.13 2920.54 1363.13 2910.48 1359.75 2900.17 1352.99 2889.86 1346.23 2876.32 1334.01 2859.56 1316.33 2859.03 1315.01 2836.34 1289.46 2791.48 1239.68 2746.63 1189.89 2707.54 1146.23 2674.22 1108.7L2674.22 1150.08C2674.22 1201.82 2675.51 1241.15 2678.08 1268.08 2680.66 1295.01 2684.97 1316.82 2691.02 1333.52 2678.07 1342.43 2667.21 1348.58 2658.43 1351.98 2649.64 1355.38 2641.14 1357.08 2632.93 1357.08 2619.3 1357.08 2609.56 1352.07 2603.71 1342.05 2597.86 1332.03 2594.94 1317.01 2594.94 1297 2594.94 1286.09 2596 1255.82 2598.13 1206.18 2600.26 1156.54 2601.32 1112.36 2601.32 1073.65 2601.32 1020.41 2599.75 980.647 2596.6 954.36 2593.45 928.073 2588.19 906.409 2580.83 889.367 2594.03 881.668 2605.4 876.287 2614.94 873.224 2624.48 870.16 2633.36 868.628 2641.57 868.628 2655.6 868.628 2665.45 872.562 2671.11 880.43 2676.76 888.299 2679.59 901.209 2679.59 919.16 2679.59 921.267 2679.22 929.751 2678.48 944.613 2675.86 994.465 2674.44 1040.84 2674.22 1083.74 2722.75 1029.54 2761.43 985.362 2790.26 951.193 2819.09 917.023 2838.27 888.403 2847.82 865.332ZM1495.57 863.925C1513.75 863.925 1527.1 866.403 1535.62 871.36 1544.15 876.317 1548.41 884.872 1548.41 897.025 1548.41 904.237 1547.17 911.851 1544.7 919.866 1542.22 927.882 1537.31 937.789 1529.97 949.589 1517.1 943.976 1502.1 939.885 1484.98 937.317 1467.86 934.748 1446.81 933.464 1421.84 933.464 1412.69 933.464 1401.83 933.626 1389.26 933.949 1376.68 934.273 1364.64 934.675 1353.14 935.154L1352.86 975.209C1352.86 978.163 1352.6 995.861 1352.08 1028.3 1351.86 1049.02 1351.68 1063.74 1351.53 1072.48 1350.86 1072.39 1351.56 1072.38 1353.64 1072.44 1355.72 1072.51 1360.79 1072.54 1368.83 1072.54 1414.61 1072.54 1447.19 1071.8 1466.58 1070.32 1485.97 1068.85 1503.78 1066.18 1520.01 1062.33 1523.84 1069.09 1526.4 1074.84 1527.68 1079.59 1528.96 1084.34 1529.6 1088.73 1529.6 1092.76 1529.6 1108.63 1524.92 1119.86 1515.55 1126.46 1506.19 1133.06 1490.31 1136.36 1467.9 1136.36 1465.93 1136.36 1461.25 1136.36 1453.87 1136.36 1427.91 1135.92 1404.06 1135.7 1382.32 1135.7 1378.67 1135.7 1372.47 1135.81 1363.72 1136.03 1354.98 1136.25 1350.47 1136.36 1350.21 1136.36 1350.21 1191.43 1351.88 1234.22 1355.21 1264.73 1358.54 1295.24 1364.04 1319.12 1371.71 1336.36 1357.97 1344.27 1346.38 1349.71 1336.93 1352.66 1327.48 1355.61 1318.53 1357.08 1310.08 1357.08 1295.84 1357.08 1285.93 1353.34 1280.33 1345.87 1274.73 1338.39 1271.94 1325.29 1271.94 1306.55 1271.94 1299.38 1273.22 1260.67 1275.8 1190.42 1278.38 1120.18 1279.66 1053.37 1279.66 989.996 1279.66 966.113 1278.74 945.073 1276.89 926.876 1275.04 908.68 1272.12 889.6 1268.14 869.636 1283.96 870.154 1296.24 870.563 1304.98 870.864 1313.72 871.165 1323 871.316 1332.83 871.316 1358.98 871.316 1390.06 870.084 1426.07 867.62 1462.09 865.157 1485.25 863.925 1495.57 863.925ZM2515.55 860.566C2522.58 870.294 2527.24 878.352 2529.53 884.74 2531.82 891.128 2532.97 897.176 2532.97 902.883 2532.97 917.122 2527.75 927.57 2517.31 934.228 2506.88 940.885 2491.73 944.214 2471.89 944.214 2464.87 944.214 2448.25 943.606 2422.03 942.39 2395.81 941.174 2377.32 940.326 2366.55 939.847 2365.19 974.193 2364.14 1007.5 2363.41 1039.75 2362.68 1072.01 2362.31 1103.98 2362.31 1135.66 2362.31 1190.67 2363.97 1233.4 2367.29 1263.86 2370.61 1294.33 2376.09 1318.45 2383.73 1336.24 2370.21 1344.6 2358.49 1350.27 2348.56 1353.26 2338.63 1356.26 2329.05 1357.75 2319.82 1357.75 2306.26 1357.75 2296.68 1353.88 2291.09 1346.12 2285.49 1338.37 2282.69 1325.17 2282.69 1306.54 2282.69 1295.2 2283.87 1261.01 2286.22 1203.97 2288.57 1146.94 2289.75 1095.66 2289.75 1050.13 2289.75 1038.62 2289.41 1014.05 2288.74 976.406 2288.52 958.101 2288.41 945.915 2288.41 939.847L2270.01 939.847C2238.43 939.847 2212.93 941.244 2193.51 944.038 2174.1 946.832 2157.35 951.37 2143.27 957.651 2135.79 945.103 2130.79 935.201 2128.26 927.947 2125.73 920.693 2124.47 913.96 2124.47 907.749 2124.47 895.379 2128.71 886.662 2137.19 881.598 2145.67 876.535 2158.94 874.003 2176.98 874.003 2184.55 874.003 2209.09 875.011 2250.6 877.026 2292.12 879.042 2329.96 880.05 2364.13 880.05 2403.8 880.05 2435.11 878.551 2458.06 875.554 2481.02 872.557 2500.18 867.561 2515.55 860.566Z" stroke="#262626" stroke-width="11" stroke-linejoin="round" stroke-miterlimit="10" fill="url(#fill3)" fill-rule="evenodd"/><text fill="#000000" fill-opacity="0" font-family="Arial,Arial_MSFontService,sans-serif" font-size="502.562" x="1268.14" y="1300.31">FNTK</text></g></svg>